<?xml version="1.0" standalone="no"?>
<!DOCTYPE svg PUBLIC "-//W3C//DTD SVG 1.1//EN" "http://www.w3.org/Graphics/SVG/1.1/DTD/svg11.dtd" >
<svg xmlns="http://www.w3.org/2000/svg" xmlns:xlink="http://www.w3.org/1999/xlink" version="1.1">
<metadata></metadata>
<defs>
<font id="dk_hokitikaregular" horiz-adv-x="1437" >
<font-face units-per-em="2048" ascent="1638" descent="-410" />
<missing-glyph horiz-adv-x="716" />
<glyph horiz-adv-x="0" />
<glyph horiz-adv-x="682" />
<glyph unicode=" "  horiz-adv-x="716" />
<glyph unicode="&#x09;" horiz-adv-x="716" />
<glyph unicode="&#xa0;" horiz-adv-x="716" />
<glyph unicode="!" horiz-adv-x="335" d="M102 68q0 28 19.5 46.5t48.5 18.5q28 0 47 -18.5t19 -46.5q0 -29 -19 -48.5t-47 -19.5q-29 0 -48.5 19.5t-19.5 48.5zM102 410v1228h131v-1228h-131z" />
<glyph unicode="&#x22;" horiz-adv-x="571" d="M102 1569q0 28 19.5 46.5t48.5 18.5q28 0 47 -18.5t19 -46.5l-52 -273h-37zM336 1569q0 28 19 46.5t48 18.5q28 0 47 -18.5t19 -46.5l-51 -273h-37z" />
<glyph unicode="$" horiz-adv-x="1118" d="M102 76q18 28 45.5 66t32.5 46q86 -50 193 -59v946q-61 12 -108 40t-72.5 60t-41.5 70t-21 63.5t-5 45.5q0 108 71 188t177 92v148h65v-148q78 -10 135 -55l-90 -92q-33 11 -45 14v-305l35 -4q240 -28 391.5 -190.5t151.5 -395.5q0 -160 -77 -297.5t-209.5 -220.5 t-291.5 -90v-137h-65v139q-155 6 -271 76zM254 1354q0 -55 32.5 -93.5t86.5 -54.5v295q-53 -11 -86 -51.5t-33 -95.5zM438 129q188 11 319.5 149t131.5 328q0 93 -36.5 174.5t-98.5 140t-143.5 96.5t-172.5 50v-938z" />
<glyph unicode="&#x26;" horiz-adv-x="1529" d="M102 608q0 124 55.5 243.5t155.5 206.5t222 116q-31 20 -50.5 40t-28.5 44.5t-12 41t-6 48.5v22q0 111 86.5 188.5t202.5 77.5q131 0 217 -96l-94 -96q-46 59 -123 59q-62 0 -110 -41t-48 -98q0 -3 1 -8t1 -8q4 -29 10.5 -50t18.5 -34t22 -20t30.5 -10.5t33.5 -4t41 -0.5 v-135h-25q-113 0 -221 -66t-178 -179.5t-70 -240.5q0 -131 66 -241t179 -173t245 -63t246 62q87 47 146.5 126.5t82.5 178.5l-33 8q-60 14 -96.5 19t-85 -0.5t-90.5 -28.5l2 114q56 27 114.5 33t105.5 -3t101.5 -18t102 -12t108.5 15l-2 -119q-61 -14 -94 -14 q-38 -200 -188 -338q-168 -154 -420 -154q-169 2 -311.5 81.5t-226 218.5t-83.5 308z" />
<glyph unicode="'" horiz-adv-x="337" d="M102 1569q0 28 19.5 46.5t48.5 18.5q28 0 47 -18.5t19 -46.5l-52 -273h-37z" />
<glyph unicode="(" horiz-adv-x="612" d="M102 821q0 292 117 521t291 296q-85 -55 -148.5 -189.5t-93.5 -297t-30 -330.5q0 -172 29 -335.5t92.5 -298.5t150.5 -189q-177 61 -292.5 290t-115.5 533z" />
<glyph unicode=")" horiz-adv-x="612" d="M102 -2q87 54 150.5 189t93 298.5t29.5 335.5q0 168 -30.5 330.5t-94 297t-148.5 189.5q174 -67 291 -296t117 -521q0 -304 -115.5 -533t-292.5 -290z" />
<glyph unicode="*" horiz-adv-x="794" d="M102 684l232 139l-232 144l43 61l213 -139v241h76v-241l219 141l39 -63l-233 -144l233 -145l-41 -62q-4 1 -217 138v-240h-76v240l-213 -138z" />
<glyph unicode="," horiz-adv-x="337" d="M102 68q0 28 19.5 46.5t48.5 18.5q28 0 47 -18.5t19 -46.5l-52 -273h-82v273z" />
<glyph unicode="-" horiz-adv-x="819" d="M102 758v131h615v-131h-615z" />
<glyph unicode="." horiz-adv-x="337" d="M102 68q0 28 19.5 46.5t48.5 18.5q28 0 47 -18.5t19 -46.5q0 -29 -19 -48.5t-47 -19.5q-29 0 -48.5 19.5t-19.5 48.5z" />
<glyph unicode="/" horiz-adv-x="946" d="M102 0l607 1636h135l-598 -1636h-144z" />
<glyph unicode="0" horiz-adv-x="1452" d="M102 1024q0 169 83.5 310t226.5 221.5t313 80.5q128 0 243.5 -47.5t199 -129t133 -195t49.5 -240.5t-49.5 -241.5t-133 -196.5t-199 -130t-243.5 -48q-127 0 -242 48t-198.5 130t-133 196.5t-49.5 241.5zM236 1024q0 -133 65.5 -244t178 -174t245.5 -63q205 0 347 139 t142 342q0 133 -65 243t-177.5 173t-246.5 63q-133 0 -245.5 -63t-178 -173t-65.5 -243z" />
<glyph unicode="1" horiz-adv-x="595" d="M102 1247l260 269v122h132v-1638h-132v1327l-165 -170z" />
<glyph unicode="2" horiz-adv-x="1318" d="M102 -2l856 967q97 118 97 229q0 127 -87 219t-214 92q-108 0 -195 -26.5t-142 -64t-118 -99.5l-88 92q91 108 230 168.5t288 60.5q119 0 221 -56t164 -158t62 -228q0 -76 -27 -155.5t-76 -137.5q-216 -249 -678 -768h822v-135h-1115z" />
<glyph unicode="3" horiz-adv-x="1247" d="M102 154l76 114q67 -65 156.5 -101t189.5 -36q132 0 245 63t179 173t66 241q0 127 -70 240.5t-178 179.5t-221 66h-25v135q28 0 41 0.5t33.5 4t30.5 10.5t22 20t18.5 34t10.5 50q0 3 1 8t1 8q0 57 -48 98t-110 41q-77 0 -123 -59l-94 96q86 96 217 96q116 0 202.5 -77.5 t86.5 -188.5v-22q-3 -33 -6 -49t-12 -41t-28 -44.5t-50 -39.5q122 -29 222 -116t155 -206.5t55 -243.5q0 -169 -83.5 -309.5t-226.5 -220.5t-313 -80q-243 0 -420 156z" />
<glyph unicode="4" horiz-adv-x="1339" d="M102 483q132 194 391 570.5t400 584.5h156l-691 -1024h568v408h129v-408h182v-131h-186v-483h-129v483h-820z" />
<glyph unicode="5" horiz-adv-x="1126" d="M102 76q18 28 45.5 66t32.5 46q106 -59 232 -59q196 0 336.5 140.5t140.5 336.5q0 192 -137.5 318.5t-345.5 144.5l206 569h412v-133h-324l-122 -334q198 -54 318 -207.5t120 -357.5q0 -165 -81 -305t-220.5 -221.5t-304.5 -81.5q-173 0 -308 78z" />
<glyph unicode="6" horiz-adv-x="1458" d="M104 681.5q3 139.5 46.5 273.5t121 258t176 217.5t222 149.5t250.5 56q108 0 200 -34l-43 -127q-80 27 -155.5 31t-141 -13t-124 -49t-109 -80.5t-92 -104.5t-76.5 -122q111 100 258 122t289 -32q97 -33 177.5 -94t135.5 -141t85.5 -172t30 -193.5t-33.5 -200.5t-93 -180 t-139 -135t-170 -83.5t-191 -27.5t-198 35q-151 58 -250.5 160.5t-139 224.5t-36.5 261.5zM240 598q10 -99 50.5 -183t114 -150t168.5 -99q96 -35 193.5 -26.5t181 48t149 114t97.5 171.5q64 196 -25.5 376.5t-283.5 248.5q-96 36 -193.5 27.5t-181 -47t-149 -113 t-97.5 -170.5q-34 -98 -24 -197z" />
<glyph unicode="7" horiz-adv-x="886" d="M102 1507v131h682l-538 -1638h-137l485 1507h-492z" />
<glyph unicode="8" horiz-adv-x="1452" d="M102 608q0 180 109 317.5t297 225.5q-74 112 -74 197q0 120 85 204t206 84q120 0 204.5 -84t84.5 -204q0 -83 -70 -197q190 -87 298 -224.5t108 -318.5q0 -169 -83.5 -309.5t-226.5 -220.5t-313 -80q-128 0 -243.5 47.5t-199 128.5t-133 194t-49.5 240zM240 608 q0 -200 143 -338.5t346 -138.5q132 0 245 63t179 173t66 241q0 132 -66.5 235t-178 157.5t-245.5 54.5q-207 0 -348 -124.5t-141 -322.5zM569 1348q0 -66 45 -111t111 -45q65 0 110.5 45t45.5 111q0 64 -45.5 109.5t-110.5 45.5q-66 0 -111 -45t-45 -110z" />
<glyph unicode="9" horiz-adv-x="1458" d="M103.5 1009.5q0.5 101.5 33.5 200.5t93 180t139 135t170 83.5t191.5 28t197.5 -34.5q151 -58 250.5 -160.5t139 -224.5t37 -262t-46.5 -274t-121 -258t-176 -217.5t-222 -149.5t-250 -56q-106 0 -201 35l43 127q80 -27 155.5 -31t141 13t124 49t109 80.5t92 104.5 t76.5 122q-111 -100 -258 -122t-289 32q-97 33 -177.5 94t-135.5 140.5t-85.5 171.5t-30 193.5zM264 1163q-64 -196 25.5 -376t283.5 -248q96 -36 193.5 -27.5t181 47t149 113t97.5 170.5q34 99 24 197t-50.5 182t-114 150t-168.5 99q-96 35 -193.5 26.5t-181 -48t-149 -114 t-97.5 -171.5z" />
<glyph unicode=":" horiz-adv-x="337" d="M102 68q0 28 19.5 46.5t48.5 18.5q28 0 47 -18.5t19 -46.5q0 -29 -19 -48.5t-47 -19.5q-29 0 -48.5 19.5t-19.5 48.5zM102 1161q0 28 19.5 47t48.5 19q28 0 47 -19t19 -47q0 -29 -19 -48t-47 -19q-29 0 -48.5 19t-19.5 48z" />
<glyph unicode=";" horiz-adv-x="337" d="M102 68q0 28 19.5 46.5t48.5 18.5q28 0 47 -18.5t19 -46.5l-52 -273h-82v273zM102 1161q0 28 19.5 47t48.5 19q28 0 47 -19t19 -47q0 -29 -19 -48t-47 -19q-29 0 -48.5 19t-19.5 48z" />
<glyph unicode="?" horiz-adv-x="710" d="M102 1540q86 96 217 96q116 0 202.5 -77.5t86.5 -188.5v-22q0 -66 -26.5 -140t-65 -148t-78 -156t-68.5 -193t-32 -230l-2 -71h-127v41q0 135 22 246t56 189.5t70 146.5t69.5 149.5t48.5 165.5q2 6 2 16q0 57 -48 98t-110 41q-76 0 -122 -59zM209 68q0 28 19 46.5 t48 18.5q28 0 47 -18.5t19 -46.5q0 -29 -19 -48.5t-47 -19.5q-29 0 -48 19.5t-19 48.5z" />
<glyph unicode="@" horiz-adv-x="1847" d="M102 821q0 223 110.5 411t299.5 297t412 109q167 0 319 -64.5t262 -173.5t175 -260.5t65 -318.5q0 -224 -109 -409h-565v41q-94 -37 -147 -37q-117 0 -199 81.5t-82 198.5q0 116 82 198.5t199 82.5q41 0 129 -29v76q0 50 -10.5 80.5t-28.5 45t-50.5 14t-67.5 -9.5 t-89 -28v121q149 21 235 8.5t119 -84t33 -247.5v-383h371q55 151 55 278q0 188 -92.5 347t-252.5 251t-349 92q-141 0 -269.5 -54.5t-222 -146.5t-148.5 -220t-55 -269q0 -142 55 -270.5t148.5 -221.5t222 -147.5t269.5 -54.5q62 0 114 8q7 -26 21 -65.5t18 -53.5 q-74 -14 -155 -14q-167 0 -319 65t-262.5 175t-175.5 262t-65 319zM779.5 664.5q7.5 -32.5 23.5 -59.5t48 -43.5t73 -16.5q52 0 92 32t55 85v63q-15 54 -55.5 88.5t-91.5 34.5q-40 0 -71.5 -16.5t-48 -43.5t-24.5 -59t-0.5 -64.5z" />
<glyph unicode="A" d="M102 -2l334 1384q29 114 103.5 185t179.5 71t179.5 -69t102.5 -187l334 -1384h-131q-144 641 -260 1098h-446l-265 -1098h-131zM526 1227h383q-25 83 -47.5 137.5t-37.5 82.5t-36.5 42t-32 15.5t-36.5 2.5h-8q-29 0 -45.5 -3.5t-36.5 -18t-35 -44.5t-32 -82t-36 -132z " />
<glyph unicode="B" horiz-adv-x="985" d="M102 0v1638h283q117 0 199 -82t82 -200q0 -55 -39 -112t-107 -89q145 -62 254 -225t109 -322q0 -165 -81 -305t-221 -221.5t-305 -81.5h-174zM231 131q142 0 262.5 63.5t190.5 173.5t70 240t-70 242.5t-190.5 179t-262.5 66.5v-965zM231 1227h154q66 0 109 34t43 95 q0 64 -44.5 107.5t-107.5 43.5h-154v-280z" />
<glyph unicode="C" horiz-adv-x="1519" d="M102 811q0 168 65.5 321t176 263.5t263.5 175.5t321 65q269 0 489 -166l-90 -90q-178 125 -395 125q-187 0 -347.5 -93.5t-254.5 -253.5t-94 -347q0 -140 55.5 -266.5t149 -217t222 -143.5t269.5 -53q218 0 403 135l82 -104q-218 -162 -489 -162q-169 0 -321.5 63 t-263.5 170.5t-176 258.5t-65 319z" />
<glyph unicode="D" horiz-adv-x="1411" d="M102 0v1638h392q222 -2 409.5 -113t296.5 -300t109 -412q0 -168 -65 -319t-176 -259t-263.5 -171.5t-321.5 -63.5h-381zM231 131h256q141 0 269.5 53.5t222.5 144t149.5 217.5t55.5 267q0 187 -94 347t-255 253.5t-348 93.5h-256v-1376z" />
<glyph unicode="E" horiz-adv-x="923" d="M102 0v1638h717v-131h-586v-278h381v-131h-381v-967h588v-131h-719z" />
<glyph unicode="F" horiz-adv-x="921" d="M102 0v1638h717v-131h-586v-280h381v-131h-381v-1096h-131z" />
<glyph unicode="G" horiz-adv-x="1859" d="M102 825q0 168 65 319t176 258.5t263.5 170.5t321.5 63q266 0 489 -166l-90 -90q-178 125 -395 125q-141 0 -269.5 -53t-222 -143.5t-149 -217t-55.5 -266.5q0 -187 94 -347t254.5 -253.5t347.5 -93.5q186 0 346 93.5t254 253.5t94 347v273h-764v131h895v-1229h-131v371 q-153 -174 -333.5 -272.5t-364.5 -98.5q-168 0 -321 65t-263.5 175.5t-176 263.5t-65.5 321z" />
<glyph unicode="H" horiz-adv-x="1257" d="M102 0v1638h129v-411h795v411h129v-1638h-129v1096h-795v-1096h-129z" />
<glyph unicode="I" horiz-adv-x="335" d="M102 0v1638h131v-1638h-131z" />
<glyph unicode="J" horiz-adv-x="657" d="M102 57l93 95q40 -21 79 -21q148 0 148 188v1319h131l2 -1357q0 -118 -82 -199.5t-199 -81.5q-97 0 -172 57z" />
<glyph unicode="K" horiz-adv-x="1202" d="M102 0v1636h131v-407l5 -6l530 419l84 -100l-530 -426l778 -1022q-22 -16 -56 -43t-49 -39l-762 1006v-1018h-131z" />
<glyph unicode="L" horiz-adv-x="770" d="M102 0v1638h131v-1507h435v-131h-566z" />
<glyph unicode="M" horiz-adv-x="1681" d="M102 -2v1640h177q104 0 175.5 -69t100.5 -187l285 -1157l280 1159q30 117 104 185.5t179 68.5h176v-1638h-131v1507h-12q-112 0 -158 -99.5t-137 -491.5q-120 -516 -228 -916l-147 -2l-51 209q-200 827 -257 1018q-62 206 -112 254q-32 30 -90 30h-25v-1511h-129z" />
<glyph unicode="N" horiz-adv-x="1116" d="M102 -2v1638h177q105 0 178.5 -69.5t103.5 -186.5l324 -1241v1497h129v-1636q-45 0 -113 -1t-108 -1q-53 209 -136 545q-150 602 -195 743q-51 156 -100 195q-41 25 -110 26h-21v-1509h-129z" />
<glyph unicode="O" horiz-adv-x="1855" d="M102 813q0 168 65.5 321t176 263.5t263.5 175.5t321 65t320.5 -65t263 -175.5t176 -263.5t65.5 -321t-65.5 -319t-176 -259t-263 -171.5t-320.5 -63.5q-169 0 -321.5 63.5t-263.5 171.5t-176 259t-65 319zM236 813q0 -140 55.5 -267t149 -217.5t222 -144t269.5 -53.5 q140 0 268 53.5t221.5 144t149 217.5t55.5 267q0 187 -94 347t-254 253.5t-346 93.5q-187 0 -347.5 -93.5t-254.5 -253.5t-94 -347z" />
<glyph unicode="P" horiz-adv-x="985" d="M102 0v1638h174q166 0 305.5 -78.5t220.5 -215.5t81 -302t-87.5 -305t-237.5 -221.5t-327 -81.5v-434h-129zM231 565q142 0 262.5 63.5t190.5 173.5t70 240t-70 237t-190 167.5t-263 60.5v-942z" />
<glyph unicode="Q" horiz-adv-x="1855" d="M102 813q0 168 65.5 321t176 263.5t263.5 175.5t321 65t320.5 -65t263 -175.5t176 -263.5t65.5 -321q0 -166 -63.5 -315t-172 -256.5t-257 -172.5t-312.5 -69q11 0 31 -4q126 -36 200 -36q11 0 21 1q32 3 107 29v-119q-7 -2 -48.5 -14t-56.5 -13q-27 -2 -54 -2 q-95 0 -198 29q-37 11 -73 11q-9 0 -17 -1q-63 -8 -112 -35v115q63 35 131 41q-129 7 -247.5 51t-214 119t-166.5 172.5t-110 218t-39 250.5zM236 813q0 -140 55.5 -267t149 -217.5t222 -144t269.5 -53.5q140 0 268 53.5t221.5 144t149 217.5t55.5 267q0 187 -94 347 t-254 253.5t-346 93.5q-187 0 -347.5 -93.5t-254.5 -253.5t-94 -347z" />
<glyph unicode="R" horiz-adv-x="985" d="M102 0v1638h174q166 0 305.5 -78.5t220.5 -215.5t81 -302q0 -163 -90 -307.5t-242 -236.5q47 -60 155.5 -204t153.5 -202l-104 -80l-334 441q-90 -19 -191 -19v-434h-129zM231 565q142 0 262.5 63.5t190.5 173.5t70 240t-70 237t-190 167.5t-263 60.5v-942z" />
<glyph unicode="S" horiz-adv-x="1118" d="M102 76q18 28 45.5 66t32.5 46q106 -59 232 -59q196 0 336.5 140.5t140.5 336.5q0 127 -66 230t-173 162t-234 71q-72 7 -127.5 34.5t-85 60.5t-48.5 73.5t-24.5 68t-5.5 48.5q0 118 82 200t199 82q98 0 167 -57l-90 -92q-45 18 -77 18q-63 0 -107.5 -43.5t-44.5 -107.5 q0 -61 40.5 -102t104.5 -50l74 -10q240 -28 391.5 -190.5t151.5 -395.5q0 -165 -81 -305t-220.5 -221.5t-304.5 -81.5q-173 0 -308 78z" />
<glyph unicode="T" horiz-adv-x="985" d="M102 1507v131h781v-131h-326v-1507h-129v1507h-326z" />
<glyph unicode="U" horiz-adv-x="1421" d="M102 608v1030h129v-1030q0 -198 140.5 -337.5t339.5 -139.5q198 0 337.5 139.5t139.5 337.5v1030h131v-1030q0 -165 -81.5 -305t-221.5 -221.5t-305 -81.5q-166 0 -306.5 81.5t-221.5 221.5t-81 305z" />
<glyph unicode="V" d="M102 1638h134l299 -1257q25 -107 51 -162t53.5 -72.5t71.5 -17.5h8q21 1 33.5 3.5t30.5 14t30.5 32t32 60t37.5 95t43 139.5t52 191t63 253t76 321.5t91 399.5h127q-94 -399 -336 -1384q-30 -118 -103 -187t-177 -69q-105 0 -180.5 71.5t-102.5 184.5z" />
<glyph unicode="W" horiz-adv-x="1882" d="M102 1638h129l101 -1511h24q59 0 89 29q51 49 112 253q57 190 256 1012v1v1l1 1v1v1v1v1l1 1v1l51 208l148 -2q53 -197 101.5 -389.5t78 -320.5t58.5 -251.5t46.5 -197.5t39 -142t38.5 -102t41.5 -60.5t52 -35t66.5 -8.5h12l101 1507h131l-101 -1638h-176 q-105 0 -178.5 68.5t-103.5 185.5l-281 1159l-285 -1157q-29 -118 -100.5 -187t-175.5 -69h-176z" />
<glyph unicode="X" horiz-adv-x="1077" d="M102 0l361 825q-54 123 -176 395t-185 416h146l289 -645l292 645h146l-363 -811l363 -825h-146l-292 657q-274 -628 -287 -657h-148z" />
<glyph unicode="Y" horiz-adv-x="1230" d="M102 1638h131l197 -823q31 -130 64.5 -185t78.5 -65h70q38 7 64.5 39t67 141.5t94 320t135.5 572.5h124l-231 -950q-26 -91 -84.5 -159t-140.5 -95v-434h-131v440q-82 33 -135 97.5t-72 150.5q-30 126 -110 447.5t-122 502.5z" />
<glyph unicode="Z" horiz-adv-x="888" d="M102 1507v131h682l-487 -1507h489v-131h-677l485 1507h-492z" />
<glyph unicode="\" horiz-adv-x="946" d="M102 1636h136l606 -1636h-144z" />
<glyph unicode="^" />
<glyph unicode="_" horiz-adv-x="1048" d="M102 0v131h844v-131h-844z" />
<glyph unicode="a" d="M102 -2l334 1384q29 114 103.5 185t179.5 71t179.5 -69t102.5 -187l334 -1384h-131q-144 641 -260 1098h-446l-265 -1098h-131zM526 1227h383q-25 83 -47.5 137.5t-37.5 82.5t-36.5 42t-32 15.5t-36.5 2.5h-8q-29 0 -45.5 -3.5t-36.5 -18t-35 -44.5t-32 -82t-36 -132z " />
<glyph unicode="b" horiz-adv-x="985" d="M102 0v1638h283q117 0 199 -82t82 -200q0 -55 -39 -112t-107 -89q145 -62 254 -225t109 -322q0 -165 -81 -305t-221 -221.5t-305 -81.5h-174zM231 131q142 0 262.5 63.5t190.5 173.5t70 240t-70 242.5t-190.5 179t-262.5 66.5v-965zM231 1227h154q66 0 109 34t43 95 q0 64 -44.5 107.5t-107.5 43.5h-154v-280z" />
<glyph unicode="c" horiz-adv-x="1519" d="M102 811q0 168 65.5 321t176 263.5t263.5 175.5t321 65q269 0 489 -166l-90 -90q-178 125 -395 125q-187 0 -347.5 -93.5t-254.5 -253.5t-94 -347q0 -140 55.5 -266.5t149 -217t222 -143.5t269.5 -53q218 0 403 135l82 -104q-218 -162 -489 -162q-169 0 -321.5 63 t-263.5 170.5t-176 258.5t-65 319z" />
<glyph unicode="d" horiz-adv-x="1411" d="M102 0v1638h392q222 -2 409.5 -113t296.5 -300t109 -412q0 -168 -65 -319t-176 -259t-263.5 -171.5t-321.5 -63.5h-381zM231 131h256q141 0 269.5 53.5t222.5 144t149.5 217.5t55.5 267q0 187 -94 347t-255 253.5t-348 93.5h-256v-1376z" />
<glyph unicode="e" horiz-adv-x="923" d="M102 0v1638h717v-131h-586v-278h381v-131h-381v-967h588v-131h-719z" />
<glyph unicode="f" horiz-adv-x="921" d="M102 0v1638h717v-131h-586v-280h381v-131h-381v-1096h-131z" />
<glyph unicode="g" horiz-adv-x="1859" d="M102 825q0 168 65 319t176 258.5t263.5 170.5t321.5 63q266 0 489 -166l-90 -90q-178 125 -395 125q-141 0 -269.5 -53t-222 -143.5t-149 -217t-55.5 -266.5q0 -187 94 -347t254.5 -253.5t347.5 -93.5q186 0 346 93.5t254 253.5t94 347v273h-764v131h895v-1229h-131v371 q-153 -174 -333.5 -272.5t-364.5 -98.5q-168 0 -321 65t-263.5 175.5t-176 263.5t-65.5 321z" />
<glyph unicode="h" horiz-adv-x="1257" d="M102 0v1638h129v-411h795v411h129v-1638h-129v1096h-795v-1096h-129z" />
<glyph unicode="i" horiz-adv-x="335" d="M102 0v1638h131v-1638h-131z" />
<glyph unicode="j" horiz-adv-x="657" d="M102 57l93 95q40 -21 79 -21q148 0 148 188v1319h131l2 -1357q0 -118 -82 -199.5t-199 -81.5q-97 0 -172 57z" />
<glyph unicode="k" horiz-adv-x="1202" d="M102 0v1636h131v-407q206 0 354 113.5t165 293.5h131q-15 -201 -164 -345t-379 -195l760 -1002q-22 -16 -56 -43t-49 -39l-762 1006v-1018h-131z" />
<glyph unicode="l" horiz-adv-x="770" d="M102 0v1638h131v-1507h435v-131h-566z" />
<glyph unicode="m" horiz-adv-x="1681" d="M102 -2v1640h177q104 0 175.5 -69t100.5 -187l285 -1157l280 1159q30 117 104 185.5t179 68.5h176v-1638h-131v1507h-12q-112 0 -158 -99.5t-137 -491.5q-120 -516 -228 -916l-147 -2l-51 209q-200 827 -257 1018q-62 206 -112 254q-32 30 -90 30h-25v-1511h-129z" />
<glyph unicode="n" horiz-adv-x="1116" d="M102 -2v1638h177q105 0 178.5 -69.5t103.5 -186.5l324 -1241v1497h129v-1636q-45 0 -113 -1t-108 -1q-53 209 -136 545q-150 602 -195 743q-51 156 -100 195q-41 25 -110 26h-21v-1509h-129z" />
<glyph unicode="o" horiz-adv-x="1855" d="M102 813q0 168 65.5 321t176 263.5t263.5 175.5t321 65t320.5 -65t263 -175.5t176 -263.5t65.5 -321t-65.5 -319t-176 -259t-263 -171.5t-320.5 -63.5q-169 0 -321.5 63.5t-263.5 171.5t-176 259t-65 319zM236 813q0 -140 55.5 -267t149 -217.5t222 -144t269.5 -53.5 q140 0 268 53.5t221.5 144t149 217.5t55.5 267q0 187 -94 347t-254 253.5t-346 93.5q-187 0 -347.5 -93.5t-254.5 -253.5t-94 -347z" />
<glyph unicode="p" horiz-adv-x="985" d="M102 0v1638h174q166 0 305.5 -78.5t220.5 -215.5t81 -302t-87.5 -305t-237.5 -221.5t-327 -81.5v-434h-129zM231 565q142 0 262.5 63.5t190.5 173.5t70 240t-70 237t-190 167.5t-263 60.5v-942z" />
<glyph unicode="q" horiz-adv-x="1855" d="M102 813q0 168 65.5 321t176 263.5t263.5 175.5t321 65t320.5 -65t263 -175.5t176 -263.5t65.5 -321q0 -166 -63.5 -315t-172 -256.5t-257 -172.5t-312.5 -69q11 0 31 -4q126 -36 200 -36q11 0 21 1q32 3 107 29v-119q-7 -2 -48.5 -14t-56.5 -13q-27 -2 -54 -2 q-95 0 -198 29q-37 11 -73 11q-9 0 -17 -1q-63 -8 -112 -35v115q63 35 131 41q-129 7 -247.5 51t-214 119t-166.5 172.5t-110 218t-39 250.5zM236 813q0 -140 55.5 -267t149 -217.5t222 -144t269.5 -53.5q140 0 268 53.5t221.5 144t149 217.5t55.5 267q0 187 -94 347 t-254 253.5t-346 93.5q-187 0 -347.5 -93.5t-254.5 -253.5t-94 -347z" />
<glyph unicode="r" horiz-adv-x="985" d="M102 0v1638h174q166 0 305.5 -78.5t220.5 -215.5t81 -302q0 -163 -90 -307.5t-242 -236.5q47 -60 155.5 -204t153.5 -202l-104 -80l-334 441q-90 -19 -191 -19v-434h-129zM231 565q142 0 262.5 63.5t190.5 173.5t70 240t-70 237t-190 167.5t-263 60.5v-942z" />
<glyph unicode="s" horiz-adv-x="1118" d="M102 76q18 28 45.5 66t32.5 46q106 -59 232 -59q196 0 336.5 140.5t140.5 336.5q0 127 -66 230t-173 162t-234 71q-72 7 -127.5 34.5t-85 60.5t-48.5 73.5t-24.5 68t-5.5 48.5q0 118 82 200t199 82q98 0 167 -57l-90 -92q-45 18 -77 18q-63 0 -107.5 -43.5t-44.5 -107.5 q0 -61 40.5 -102t104.5 -50l74 -10q240 -28 391.5 -190.5t151.5 -395.5q0 -165 -81 -305t-220.5 -221.5t-304.5 -81.5q-173 0 -308 78z" />
<glyph unicode="t" horiz-adv-x="985" d="M102 1507v131h781v-131h-326v-1507h-129v1507h-326z" />
<glyph unicode="u" horiz-adv-x="1421" d="M102 608v1030h129v-1030q0 -198 140.5 -337.5t339.5 -139.5q198 0 337.5 139.5t139.5 337.5v1030h131v-1030q0 -165 -81.5 -305t-221.5 -221.5t-305 -81.5q-166 0 -306.5 81.5t-221.5 221.5t-81 305z" />
<glyph unicode="v" d="M102 1638h134l299 -1257q25 -107 51 -162t53.5 -72.5t71.5 -17.5h8q21 1 33.5 3.5t30.5 14t30.5 32t32 60t37.5 95t43 139.5t52 191t63 253t76 321.5t91 399.5h127q-94 -399 -336 -1384q-30 -118 -103 -187t-177 -69q-105 0 -180.5 71.5t-102.5 184.5z" />
<glyph unicode="w" horiz-adv-x="1882" d="M102 1638h129l101 -1511h24q59 0 89 29q51 49 112 253q57 190 256 1012v1v1l1 1v1v1v1v1l1 1v1l51 208l148 -2q53 -197 101.5 -389.5t78 -320.5t58.5 -251.5t46.5 -197.5t39 -142t38.5 -102t41.5 -60.5t52 -35t66.5 -8.5h12l101 1507h131l-101 -1638h-176 q-105 0 -178.5 68.5t-103.5 185.5l-281 1159l-285 -1157q-29 -118 -100.5 -187t-175.5 -69h-176z" />
<glyph unicode="x" horiz-adv-x="1077" d="M102 0l361 825q-54 123 -176 395t-185 416h146l289 -645l292 645h146l-363 -811l363 -825h-146l-292 657q-274 -628 -287 -657h-148z" />
<glyph unicode="y" horiz-adv-x="1228" d="M102 0v131q167 6 312 87t237 216q-10 -2 -35 -2q-105 0 -180 71.5t-102 184.5l-230 950h132l196 -823q25 -107 51 -162t53.5 -72.5t71.5 -17.5h8q23 1 36.5 4.5t33 18.5t35 44t38 81.5t45 129.5t53.5 190t67 262t82 345h120l-229 -950q-36 -141 -107.5 -263t-171 -215.5 t-232.5 -149t-284 -60.5z" />
<glyph unicode="z" horiz-adv-x="888" d="M102 1507v131h682l-487 -1507h489v-131h-677l485 1507h-492z" />
<glyph unicode="&#xa1;" horiz-adv-x="335" d="M102 1571q0 29 19 48t47 19q29 0 48.5 -19t19.5 -48q0 -28 -19.5 -47t-48.5 -19q-28 0 -47 19t-19 47zM104 0v1229h132v-1229h-132z" />
<glyph unicode="&#xaa;" horiz-adv-x="604" d="M102 1290q0 71 59.5 121.5t143.5 50.5q34 0 94 -16v45q0 72 -44.5 83t-133.5 -20v74q108 12 170.5 4.5t86.5 -51.5t24 -151l-2 -314h-88v27q-68 -23 -107 -23q-85 0 -144 49.5t-59 120.5zM198.5 1291q-0.5 -35 27.5 -64t79 -29q38 0 67 20t40 52v39q-11 33 -40 54t-67 21 q-49 0 -77.5 -29t-29 -64z" />
<glyph unicode="&#xad;" horiz-adv-x="819" d="M102 758v131h615v-131h-615z" />
<glyph unicode="&#xba;" horiz-adv-x="698" d="M102 1393q0 102 72.5 173.5t175.5 71.5q102 0 174 -71.5t72 -173.5t-72 -174t-174 -72q-103 0 -175.5 71.5t-72.5 174.5zM217 1393q0 -55 38.5 -94t94.5 -39q55 0 93 38.5t38 94.5t-38 94.5t-93 38.5q-56 0 -94.5 -39t-38.5 -94z" />
<glyph unicode="&#xc0;" d="M102 -2l334 1384q29 114 103.5 185t179.5 71t179.5 -69t102.5 -187l334 -1384h-131q-144 641 -260 1098h-446l-265 -1098h-131zM526 1227h383q-25 83 -47.5 137.5t-37.5 82.5t-36.5 42t-32 15.5t-36.5 2.5h-8q-29 0 -45.5 -3.5t-36.5 -18t-35 -44.5t-32 -82t-36 -132z M535 1870h196l172 -172h-119z" />
<glyph unicode="&#xc1;" d="M102 -2l334 1384q29 114 103.5 185t179.5 71t179.5 -69t102.5 -187l334 -1384h-131q-144 641 -260 1098h-446l-265 -1098h-131zM526 1227h383q-25 83 -47.5 137.5t-37.5 82.5t-36.5 42t-32 15.5t-36.5 2.5h-8q-29 0 -45.5 -3.5t-36.5 -18t-35 -44.5t-32 -82t-36 -132z M535 1698l172 172h196l-250 -172h-118z" />
<glyph unicode="&#xc2;" d="M102 -2l334 1384q29 114 103.5 185t179.5 71t179.5 -69t102.5 -187l334 -1384h-131q-144 641 -260 1098h-446l-265 -1098h-131zM399 1698l242 260h154l243 -260h-200l-119 170l-125 -172zM526 1227h383q-25 83 -47.5 137.5t-37.5 82.5t-36.5 42t-32 15.5t-36.5 2.5h-8 q-29 0 -45.5 -3.5t-36.5 -18t-35 -44.5t-32 -82t-36 -132z" />
<glyph unicode="&#xc3;" d="M102 -2l334 1384q29 114 103.5 185t179.5 71t179.5 -69t102.5 -187l334 -1384h-131q-144 641 -260 1098h-446l-265 -1098h-131zM451 1696l2 114q66 35 137 41q43 3 94 -6q144 -41 221 -35q49 4 80 15l-2 -119q-42 -9 -76 -12q-121 -12 -252 26q-49 14 -90 11 q-66 -9 -114 -35zM526 1227h383q-25 83 -47.5 137.5t-37.5 82.5t-36.5 42t-32 15.5t-36.5 2.5h-8q-29 0 -45.5 -3.5t-36.5 -18t-35 -44.5t-32 -82t-36 -132z" />
<glyph unicode="&#xc4;" d="M102 -2l334 1384q29 114 103.5 185t179.5 71t179.5 -69t102.5 -187l334 -1384h-131q-144 641 -260 1098h-446l-265 -1098h-131zM520 1802q0 48 20 81.5t50 33.5q28 0 47.5 -34t19.5 -81q0 -51 -19.5 -85t-47.5 -34q-31 0 -50.5 34t-19.5 85zM526 1227h383 q-25 83 -47.5 137.5t-37.5 82.5t-36.5 42t-32 15.5t-36.5 2.5h-8q-29 0 -45.5 -3.5t-36.5 -18t-35 -44.5t-32 -82t-36 -132zM778 1800q0 48 20 81.5t50 33.5q28 0 47.5 -34t19.5 -81q0 -51 -19.5 -85t-47.5 -34q-31 0 -50.5 34t-19.5 85z" />
<glyph unicode="&#xc5;" d="M102 -2l334 1384q29 114 103.5 185t179.5 71t179.5 -69t102.5 -187l334 -1384h-131q-144 641 -260 1098h-446l-265 -1098h-131zM471 1974q0 103 72.5 174.5t175.5 71.5q102 0 174 -72t72 -174t-72 -173.5t-174 -71.5q-103 0 -175.5 71.5t-72.5 173.5zM526 1227h383 q-25 83 -47.5 137.5t-37.5 82.5t-36.5 42t-32 15.5t-36.5 2.5h-8q-29 0 -45.5 -3.5t-36.5 -18t-35 -44.5t-32 -82t-36 -132zM586 1974q0 -56 39 -94.5t94 -38.5t93 38.5t38 94.5t-38 94.5t-93 38.5t-94 -38.5t-39 -94.5z" />
<glyph unicode="&#xc6;" horiz-adv-x="1452" d="M102 -2l334 1384q29 114 103.5 185t179.5 71h629v-131h-504v-280h289v-131h-289v-965h506v-131h-637v1096h-215l-265 -1098h-131zM526 1227h187v280q-29 0 -45.5 -3.5t-37 -18t-35.5 -44t-32.5 -82t-36.5 -132.5z" />
<glyph unicode="&#xc7;" horiz-adv-x="1519" d="M102 811q0 168 65.5 321t176 263.5t263.5 175.5t321 65q269 0 489 -166l-90 -90q-178 125 -395 125q-187 0 -347.5 -93.5t-254.5 -253.5t-94 -347q0 -140 55.5 -266.5t149 -217t222 -143.5t269.5 -53q218 0 403 135l82 -104q-218 -162 -489 -162q-9 0 -41.5 2t-48.5 2 l-13 -37l9 -6q34 -24 50 -36.5t39 -35t33.5 -47.5t12.5 -57v-18q0 -92 -72 -157t-168 -65q-107 0 -180 80l78 80q40 -49 102 -49q50 0 90.5 34.5t40.5 80.5q0 26 -18.5 50.5t-39 39t-58 37.5t-52.5 34l33 88q-175 40 -316 151.5t-224 279.5t-83 360z" />
<glyph unicode="&#xc8;" horiz-adv-x="923" d="M102 0v1638h717v-131h-586v-278h381v-131h-381v-967h588v-131h-719zM276 1874h197l172 -172h-119z" />
<glyph unicode="&#xc9;" horiz-adv-x="923" d="M102 0v1638h717v-131h-586v-278h381v-131h-381v-967h588v-131h-719zM276 1702l173 172h196l-250 -172h-119z" />
<glyph unicode="&#xca;" horiz-adv-x="923" d="M102 0v1638h717v-131h-586v-278h381v-131h-381v-967h588v-131h-719zM141 1702l242 260h154l243 -260h-200l-119 170l-125 -170h-195z" />
<glyph unicode="&#xcb;" horiz-adv-x="923" d="M102 0v1638h717v-131h-586v-278h381v-131h-381v-967h588v-131h-719zM264 1806q0 48 20 81.5t50 33.5q28 0 47.5 -34t19.5 -81q0 -51 -19.5 -84.5t-47.5 -33.5q-31 0 -50.5 33.5t-19.5 84.5zM522 1804q0 48 20 81.5t50 33.5q28 0 47.5 -34t19.5 -81q0 -51 -19.5 -84.5 t-47.5 -33.5q-31 0 -50.5 33.5t-19.5 84.5z" />
<glyph unicode="&#xcc;" horiz-adv-x="335" d="M-16 1870h196l172 -172h-119zM102 0v1638h131v-1638h-131z" />
<glyph unicode="&#xcd;" horiz-adv-x="335" d="M-16 1698l172 172h196l-250 -172h-118zM102 0v1638h131v-1638h-131z" />
<glyph unicode="&#xce;" horiz-adv-x="335" d="M-152 1698l242 260h154l243 -260h-200l-119 170l-125 -172zM102 0v1638h131v-1638h-131z" />
<glyph unicode="&#xcf;" horiz-adv-x="335" d="M-29 1802q0 48 20 81.5t50 33.5q28 0 48 -34t20 -81q0 -50 -20 -84.5t-48 -34.5q-31 0 -50.5 34t-19.5 85zM102 0v1638h131v-1638h-131zM229 1800q0 48 20 81.5t50 33.5q28 0 48 -34t20 -81q0 -50 -20 -84.5t-48 -34.5q-31 0 -50.5 34t-19.5 85z" />
<glyph unicode="&#xd1;" horiz-adv-x="1116" d="M102 -2v1638h177q105 0 178.5 -69.5t103.5 -186.5l324 -1241v1497h129v-1636q-45 0 -113 -1t-108 -1q-53 209 -136 545q-150 602 -195 743q-51 156 -100 195q-41 25 -110 26h-21v-1509h-129zM291 1696l2 114q66 35 137 41q43 3 94 -6q144 -41 221 -35q49 4 80 15l-2 -119 q-42 -9 -75 -12q-121 -12 -252 26q-49 14 -90 11q-67 -9 -115 -35z" />
<glyph unicode="&#xd2;" horiz-adv-x="1855" d="M102 813q0 168 65.5 321t176 263.5t263.5 175.5t321 65t320.5 -65t263 -175.5t176 -263.5t65.5 -321t-65.5 -319t-176 -259t-263 -171.5t-320.5 -63.5q-169 0 -321.5 63.5t-263.5 171.5t-176 259t-65 319zM236 813q0 -140 55.5 -267t149 -217.5t222 -144t269.5 -53.5 q140 0 268 53.5t221.5 144t149 217.5t55.5 267q0 187 -94 347t-254 253.5t-346 93.5q-187 0 -347.5 -93.5t-254.5 -253.5t-94 -347zM743 1870h197l172 -172h-119z" />
<glyph unicode="&#xd3;" horiz-adv-x="1855" d="M102 813q0 168 65.5 321t176 263.5t263.5 175.5t321 65t320.5 -65t263 -175.5t176 -263.5t65.5 -321t-65.5 -319t-176 -259t-263 -171.5t-320.5 -63.5q-169 0 -321.5 63.5t-263.5 171.5t-176 259t-65 319zM236 813q0 -140 55.5 -267t149 -217.5t222 -144t269.5 -53.5 q140 0 268 53.5t221.5 144t149 217.5t55.5 267q0 187 -94 347t-254 253.5t-346 93.5q-187 0 -347.5 -93.5t-254.5 -253.5t-94 -347zM743 1698l172 172h197l-250 -172h-119z" />
<glyph unicode="&#xd4;" horiz-adv-x="1855" d="M102 813q0 168 65.5 321t176 263.5t263.5 175.5t321 65t320.5 -65t263 -175.5t176 -263.5t65.5 -321t-65.5 -319t-176 -259t-263 -171.5t-320.5 -63.5q-169 0 -321.5 63.5t-263.5 171.5t-176 259t-65 319zM236 813q0 -140 55.5 -267t149 -217.5t222 -144t269.5 -53.5 q140 0 268 53.5t221.5 144t149 217.5t55.5 267q0 187 -94 347t-254 253.5t-346 93.5q-187 0 -347.5 -93.5t-254.5 -253.5t-94 -347zM608 1698l242 260h154l243 -260h-200l-119 170l-125 -172z" />
<glyph unicode="&#xd5;" horiz-adv-x="1855" d="M102 813q0 168 65.5 321t176 263.5t263.5 175.5t321 65t320.5 -65t263 -175.5t176 -263.5t65.5 -321t-65.5 -319t-176 -259t-263 -171.5t-320.5 -63.5q-169 0 -321.5 63.5t-263.5 171.5t-176 259t-65 319zM236 813q0 -140 55.5 -267t149 -217.5t222 -144t269.5 -53.5 q140 0 268 53.5t221.5 144t149 217.5t55.5 267q0 187 -94 347t-254 253.5t-346 93.5q-187 0 -347.5 -93.5t-254.5 -253.5t-94 -347zM659 1696l3 114q66 35 137 41q43 3 94 -6q144 -41 221 -35q49 4 80 15l-2 -119q-42 -9 -76 -12q-121 -12 -252 26q-49 14 -90 11 q-67 -9 -115 -35z" />
<glyph unicode="&#xd6;" horiz-adv-x="1855" d="M102 813q0 168 65.5 321t176 263.5t263.5 175.5t321 65t320.5 -65t263 -175.5t176 -263.5t65.5 -321t-65.5 -319t-176 -259t-263 -171.5t-320.5 -63.5q-169 0 -321.5 63.5t-263.5 171.5t-176 259t-65 319zM236 813q0 -140 55.5 -267t149 -217.5t222 -144t269.5 -53.5 q140 0 268 53.5t221.5 144t149 217.5t55.5 267q0 187 -94 347t-254 253.5t-346 93.5q-187 0 -347.5 -93.5t-254.5 -253.5t-94 -347zM729 1802q0 48 20 81.5t50 33.5q28 0 47.5 -34t19.5 -81q0 -51 -19.5 -85t-47.5 -34q-31 0 -50.5 34t-19.5 85zM987 1800q0 48 20 81.5 t50 33.5q28 0 47.5 -34t19.5 -81q0 -51 -19.5 -85t-47.5 -34q-31 0 -50.5 34t-19.5 85z" />
<glyph unicode="&#xd8;" horiz-adv-x="1855" d="M102 813q0 168 65.5 321t176 263.5t263.5 175.5t321 65q108 0 223 -32l12 30h135l-26 -73q216 -98 348.5 -300.5t132.5 -449.5q0 -168 -65.5 -319t-176 -259t-263 -171.5t-320.5 -63.5q-104 0 -217 29l-11 -29h-143l27 72q-218 97 -350 296t-132 445zM236 813 q0 -202 108 -366t285 -248l477 1284q-82 24 -174 24q-187 0 -347.5 -93.5t-254.5 -253.5t-94 -347zM756 154q90 -23 176 -23q140 0 268 53.5t221.5 144t149 217.5t55.5 267q0 202 -110.5 372t-288.5 255z" />
<glyph unicode="&#xd9;" horiz-adv-x="1421" d="M102 608v1030h129v-1030q0 -198 140.5 -337.5t339.5 -139.5q198 0 337.5 139.5t139.5 337.5v1030h131v-1030q0 -165 -81.5 -305t-221.5 -221.5t-305 -81.5q-166 0 -306.5 81.5t-221.5 221.5t-81 305zM526 1870h197l172 -172h-119z" />
<glyph unicode="&#xda;" horiz-adv-x="1421" d="M102 608v1030h129v-1030q0 -198 140.5 -337.5t339.5 -139.5q198 0 337.5 139.5t139.5 337.5v1030h131v-1030q0 -165 -81.5 -305t-221.5 -221.5t-305 -81.5q-166 0 -306.5 81.5t-221.5 221.5t-81 305zM526 1698l172 172h197l-250 -172h-119z" />
<glyph unicode="&#xdb;" horiz-adv-x="1421" d="M102 608v1030h129v-1030q0 -198 140.5 -337.5t339.5 -139.5q198 0 337.5 139.5t139.5 337.5v1030h131v-1030q0 -165 -81.5 -305t-221.5 -221.5t-305 -81.5q-166 0 -306.5 81.5t-221.5 221.5t-81 305zM391 1698l242 260h153l244 -260h-201l-118 170l-125 -172z" />
<glyph unicode="&#xdc;" horiz-adv-x="1421" d="M102 608v1030h129v-1030q0 -198 140.5 -337.5t339.5 -139.5q198 0 337.5 139.5t139.5 337.5v1030h131v-1030q0 -165 -81.5 -305t-221.5 -221.5t-305 -81.5q-166 0 -306.5 81.5t-221.5 221.5t-81 305zM512 1802q0 48 20 81.5t50 33.5q28 0 47.5 -34t19.5 -81 q0 -51 -19.5 -85t-47.5 -34q-31 0 -50.5 34t-19.5 85zM770 1800q0 48 20 81.5t50 33.5q28 0 47.5 -34t19.5 -81q0 -51 -19.5 -85t-47.5 -34q-31 0 -50.5 34t-19.5 85z" />
<glyph unicode="&#xdd;" horiz-adv-x="1230" d="M102 1638h131l197 -823q31 -130 64.5 -185t78.5 -65h70q38 7 64.5 39t67 141.5t94 320t135.5 572.5h124l-231 -950q-26 -91 -84.5 -159t-140.5 -95v-434h-131v440q-82 33 -135 97.5t-72 150.5q-30 126 -110 447.5t-122 502.5zM430 1698l172 172h197l-250 -172h-119z" />
<glyph unicode="&#xdf;" horiz-adv-x="985" d="M102 0l2 1401q0 34 13.5 72t41 76.5t80.5 63.5t123 25h23q119 -6 200 -85.5t81 -196.5q0 -55 -39 -112t-107 -89q145 -62 254 -225t109 -322q0 -216 -132.5 -381t-336.5 -213l-62 129q174 37 288 167t114 298q0 161 -105 291t-268 176l4 152q66 0 109 34t43 95 q0 83 -76.5 128.5t-153 21t-76.5 -112.5l-2 -1393h-127z" />
<glyph unicode="&#xe0;" d="M102 -2l334 1384q29 114 103.5 185t179.5 71t179.5 -69t102.5 -187l334 -1384h-131q-144 641 -260 1098h-446l-265 -1098h-131zM526 1227h383q-25 83 -47.5 137.5t-37.5 82.5t-36.5 42t-32 15.5t-36.5 2.5h-8q-29 0 -45.5 -3.5t-36.5 -18t-35 -44.5t-32 -82t-36 -132z M535 1870h196l172 -172h-119z" />
<glyph unicode="&#xe1;" d="M102 -2l334 1384q29 114 103.5 185t179.5 71t179.5 -69t102.5 -187l334 -1384h-131q-144 641 -260 1098h-446l-265 -1098h-131zM526 1227h383q-25 83 -47.5 137.5t-37.5 82.5t-36.5 42t-32 15.5t-36.5 2.5h-8q-29 0 -45.5 -3.5t-36.5 -18t-35 -44.5t-32 -82t-36 -132z M535 1698l172 172h196l-250 -172h-118z" />
<glyph unicode="&#xe2;" d="M102 -2l334 1384q29 114 103.5 185t179.5 71t179.5 -69t102.5 -187l334 -1384h-131q-144 641 -260 1098h-446l-265 -1098h-131zM399 1698l242 260h154l243 -260h-200l-119 170l-125 -172zM526 1227h383q-25 83 -47.5 137.5t-37.5 82.5t-36.5 42t-32 15.5t-36.5 2.5h-8 q-29 0 -45.5 -3.5t-36.5 -18t-35 -44.5t-32 -82t-36 -132z" />
<glyph unicode="&#xe3;" d="M102 -2l334 1384q29 114 103.5 185t179.5 71t179.5 -69t102.5 -187l334 -1384h-131q-144 641 -260 1098h-446l-265 -1098h-131zM451 1696l2 114q66 35 137 41q43 3 94 -6q144 -41 221 -35q49 4 80 15l-2 -119q-42 -9 -76 -12q-121 -12 -252 26q-49 14 -90 11 q-66 -9 -114 -35zM526 1227h383q-25 83 -47.5 137.5t-37.5 82.5t-36.5 42t-32 15.5t-36.5 2.5h-8q-29 0 -45.5 -3.5t-36.5 -18t-35 -44.5t-32 -82t-36 -132z" />
<glyph unicode="&#xe4;" d="M102 -2l334 1384q29 114 103.5 185t179.5 71t179.5 -69t102.5 -187l334 -1384h-131q-144 641 -260 1098h-446l-265 -1098h-131zM520 1802q0 48 20 81.5t50 33.5q28 0 47.5 -34t19.5 -81q0 -51 -19.5 -85t-47.5 -34q-31 0 -50.5 34t-19.5 85zM526 1227h383 q-25 83 -47.5 137.5t-37.5 82.5t-36.5 42t-32 15.5t-36.5 2.5h-8q-29 0 -45.5 -3.5t-36.5 -18t-35 -44.5t-32 -82t-36 -132zM778 1800q0 48 20 81.5t50 33.5q28 0 47.5 -34t19.5 -81q0 -51 -19.5 -85t-47.5 -34q-31 0 -50.5 34t-19.5 85z" />
<glyph unicode="&#xe5;" d="M102 -2l334 1384q29 114 103.5 185t179.5 71t179.5 -69t102.5 -187l334 -1384h-131q-144 641 -260 1098h-446l-265 -1098h-131zM471 1974q0 103 72.5 174.5t175.5 71.5q102 0 174 -72t72 -174t-72 -173.5t-174 -71.5q-103 0 -175.5 71.5t-72.5 173.5zM526 1227h383 q-25 83 -47.5 137.5t-37.5 82.5t-36.5 42t-32 15.5t-36.5 2.5h-8q-29 0 -45.5 -3.5t-36.5 -18t-35 -44.5t-32 -82t-36 -132zM586 1974q0 -56 39 -94.5t94 -38.5t93 38.5t38 94.5t-38 94.5t-93 38.5t-94 -38.5t-39 -94.5z" />
<glyph unicode="&#xe6;" horiz-adv-x="1452" d="M102 -2l334 1384q29 114 103.5 185t179.5 71h629v-131h-504v-280h289v-131h-289v-965h506v-131h-637v1096h-215l-265 -1098h-131zM526 1227h187v280q-29 0 -45.5 -3.5t-37 -18t-35.5 -44t-32.5 -82t-36.5 -132.5z" />
<glyph unicode="&#xe7;" horiz-adv-x="1519" d="M102 811q0 168 65.5 321t176 263.5t263.5 175.5t321 65q269 0 489 -166l-90 -90q-178 125 -395 125q-187 0 -347.5 -93.5t-254.5 -253.5t-94 -347q0 -140 55.5 -266.5t149 -217t222 -143.5t269.5 -53q218 0 403 135l82 -104q-218 -162 -489 -162q-9 0 -41.5 2t-48.5 2 l-13 -37l9 -6q34 -24 50 -36.5t39 -35t33.5 -47.5t12.5 -57v-18q0 -92 -72 -157t-168 -65q-107 0 -180 80l78 80q40 -49 102 -49q50 0 90.5 34.5t40.5 80.5q0 26 -18.5 50.5t-39 39t-58 37.5t-52.5 34l33 88q-175 40 -316 151.5t-224 279.5t-83 360z" />
<glyph unicode="&#xe8;" horiz-adv-x="923" d="M102 0v1638h717v-131h-586v-278h381v-131h-381v-967h588v-131h-719zM276 1874h197l172 -172h-119z" />
<glyph unicode="&#xe9;" horiz-adv-x="923" d="M102 0v1638h717v-131h-586v-278h381v-131h-381v-967h588v-131h-719zM276 1702l173 172h196l-250 -172h-119z" />
<glyph unicode="&#xea;" horiz-adv-x="923" d="M102 0v1638h717v-131h-586v-278h381v-131h-381v-967h588v-131h-719zM141 1702l242 260h154l243 -260h-200l-119 170l-125 -170h-195z" />
<glyph unicode="&#xeb;" horiz-adv-x="923" d="M102 0v1638h717v-131h-586v-278h381v-131h-381v-967h588v-131h-719zM264 1806q0 48 20 81.5t50 33.5q28 0 47.5 -34t19.5 -81q0 -51 -19.5 -84.5t-47.5 -33.5q-31 0 -50.5 33.5t-19.5 84.5zM522 1804q0 48 20 81.5t50 33.5q28 0 47.5 -34t19.5 -81q0 -51 -19.5 -84.5 t-47.5 -33.5q-31 0 -50.5 33.5t-19.5 84.5z" />
<glyph unicode="&#xec;" horiz-adv-x="335" d="M-16 1870h196l172 -172h-119zM102 0v1638h131v-1638h-131z" />
<glyph unicode="&#xed;" horiz-adv-x="335" d="M-16 1698l172 172h196l-250 -172h-118zM102 0v1638h131v-1638h-131z" />
<glyph unicode="&#xee;" horiz-adv-x="335" d="M-152 1698l242 260h154l243 -260h-200l-119 170l-125 -172zM102 0v1638h131v-1638h-131z" />
<glyph unicode="&#xef;" horiz-adv-x="335" d="M-29 1802q0 48 20 81.5t50 33.5q28 0 48 -34t20 -81q0 -50 -20 -84.5t-48 -34.5q-31 0 -50.5 34t-19.5 85zM102 0v1638h131v-1638h-131zM229 1800q0 48 20 81.5t50 33.5q28 0 48 -34t20 -81q0 -50 -20 -84.5t-48 -34.5q-31 0 -50.5 34t-19.5 85z" />
<glyph unicode="&#xf1;" horiz-adv-x="1116" d="M102 -2v1638h177q105 0 178.5 -69.5t103.5 -186.5l324 -1241v1497h129v-1636q-45 0 -113 -1t-108 -1q-53 209 -136 545q-150 602 -195 743q-51 156 -100 195q-41 25 -110 26h-21v-1509h-129zM291 1696l2 114q66 35 137 41q43 3 94 -6q144 -41 221 -35q49 4 80 15l-2 -119 q-42 -9 -75 -12q-121 -12 -252 26q-49 14 -90 11q-67 -9 -115 -35z" />
<glyph unicode="&#xf2;" horiz-adv-x="1855" d="M102 813q0 168 65.5 321t176 263.5t263.5 175.5t321 65t320.5 -65t263 -175.5t176 -263.5t65.5 -321t-65.5 -319t-176 -259t-263 -171.5t-320.5 -63.5q-169 0 -321.5 63.5t-263.5 171.5t-176 259t-65 319zM236 813q0 -140 55.5 -267t149 -217.5t222 -144t269.5 -53.5 q140 0 268 53.5t221.5 144t149 217.5t55.5 267q0 187 -94 347t-254 253.5t-346 93.5q-187 0 -347.5 -93.5t-254.5 -253.5t-94 -347zM743 1870h197l172 -172h-119z" />
<glyph unicode="&#xf3;" horiz-adv-x="1855" d="M102 813q0 168 65.5 321t176 263.5t263.5 175.5t321 65t320.5 -65t263 -175.5t176 -263.5t65.5 -321t-65.5 -319t-176 -259t-263 -171.5t-320.5 -63.5q-169 0 -321.5 63.5t-263.5 171.5t-176 259t-65 319zM236 813q0 -140 55.5 -267t149 -217.5t222 -144t269.5 -53.5 q140 0 268 53.5t221.5 144t149 217.5t55.5 267q0 187 -94 347t-254 253.5t-346 93.5q-187 0 -347.5 -93.5t-254.5 -253.5t-94 -347zM743 1698l172 172h197l-250 -172h-119z" />
<glyph unicode="&#xf4;" horiz-adv-x="1855" d="M102 813q0 168 65.5 321t176 263.5t263.5 175.5t321 65t320.5 -65t263 -175.5t176 -263.5t65.5 -321t-65.5 -319t-176 -259t-263 -171.5t-320.5 -63.5q-169 0 -321.5 63.5t-263.5 171.5t-176 259t-65 319zM236 813q0 -140 55.5 -267t149 -217.5t222 -144t269.5 -53.5 q140 0 268 53.5t221.5 144t149 217.5t55.5 267q0 187 -94 347t-254 253.5t-346 93.5q-187 0 -347.5 -93.5t-254.5 -253.5t-94 -347zM608 1698l242 260h154l243 -260h-200l-119 170l-125 -172z" />
<glyph unicode="&#xf5;" horiz-adv-x="1855" d="M102 813q0 168 65.5 321t176 263.5t263.5 175.5t321 65t320.5 -65t263 -175.5t176 -263.5t65.5 -321t-65.5 -319t-176 -259t-263 -171.5t-320.5 -63.5q-169 0 -321.5 63.5t-263.5 171.5t-176 259t-65 319zM236 813q0 -140 55.5 -267t149 -217.5t222 -144t269.5 -53.5 q140 0 268 53.5t221.5 144t149 217.5t55.5 267q0 187 -94 347t-254 253.5t-346 93.5q-187 0 -347.5 -93.5t-254.5 -253.5t-94 -347zM659 1696l3 114q66 35 137 41q43 3 94 -6q144 -41 221 -35q49 4 80 15l-2 -119q-42 -9 -76 -12q-121 -12 -252 26q-49 14 -90 11 q-67 -9 -115 -35z" />
<glyph unicode="&#xf6;" horiz-adv-x="1855" d="M102 813q0 168 65.5 321t176 263.5t263.5 175.5t321 65t320.5 -65t263 -175.5t176 -263.5t65.5 -321t-65.5 -319t-176 -259t-263 -171.5t-320.5 -63.5q-169 0 -321.5 63.5t-263.5 171.5t-176 259t-65 319zM236 813q0 -140 55.5 -267t149 -217.5t222 -144t269.5 -53.5 q140 0 268 53.5t221.5 144t149 217.5t55.5 267q0 187 -94 347t-254 253.5t-346 93.5q-187 0 -347.5 -93.5t-254.5 -253.5t-94 -347zM729 1802q0 48 20 81.5t50 33.5q28 0 47.5 -34t19.5 -81q0 -51 -19.5 -85t-47.5 -34q-31 0 -50.5 34t-19.5 85zM987 1800q0 48 20 81.5 t50 33.5q28 0 47.5 -34t19.5 -81q0 -51 -19.5 -85t-47.5 -34q-31 0 -50.5 34t-19.5 85z" />
<glyph unicode="&#xf8;" horiz-adv-x="1855" d="M102 813q0 168 65.5 321t176 263.5t263.5 175.5t321 65q108 0 223 -32l12 30h135l-26 -73q216 -98 348.5 -300.5t132.5 -449.5q0 -168 -65.5 -319t-176 -259t-263 -171.5t-320.5 -63.5q-104 0 -217 29l-11 -29h-143l27 72q-218 97 -350 296t-132 445zM236 813 q0 -202 108 -366t285 -248l477 1284q-82 24 -174 24q-187 0 -347.5 -93.5t-254.5 -253.5t-94 -347zM756 154q90 -23 176 -23q140 0 268 53.5t221.5 144t149 217.5t55.5 267q0 202 -110.5 372t-288.5 255z" />
<glyph unicode="&#xf9;" horiz-adv-x="1421" d="M102 608v1030h129v-1030q0 -198 140.5 -337.5t339.5 -139.5q198 0 337.5 139.5t139.5 337.5v1030h131v-1030q0 -165 -81.5 -305t-221.5 -221.5t-305 -81.5q-166 0 -306.5 81.5t-221.5 221.5t-81 305zM526 1870h197l172 -172h-119z" />
<glyph unicode="&#xfa;" horiz-adv-x="1421" d="M102 608v1030h129v-1030q0 -198 140.5 -337.5t339.5 -139.5q198 0 337.5 139.5t139.5 337.5v1030h131v-1030q0 -165 -81.5 -305t-221.5 -221.5t-305 -81.5q-166 0 -306.5 81.5t-221.5 221.5t-81 305zM526 1698l172 172h197l-250 -172h-119z" />
<glyph unicode="&#xfb;" horiz-adv-x="1421" d="M102 608v1030h129v-1030q0 -198 140.5 -337.5t339.5 -139.5q198 0 337.5 139.5t139.5 337.5v1030h131v-1030q0 -165 -81.5 -305t-221.5 -221.5t-305 -81.5q-166 0 -306.5 81.5t-221.5 221.5t-81 305zM391 1698l242 260h153l244 -260h-201l-118 170l-125 -172z" />
<glyph unicode="&#xfc;" horiz-adv-x="1421" d="M102 608v1030h129v-1030q0 -198 140.5 -337.5t339.5 -139.5q198 0 337.5 139.5t139.5 337.5v1030h131v-1030q0 -165 -81.5 -305t-221.5 -221.5t-305 -81.5q-166 0 -306.5 81.5t-221.5 221.5t-81 305zM512 1802q0 48 20 81.5t50 33.5q28 0 47.5 -34t19.5 -81 q0 -51 -19.5 -85t-47.5 -34q-31 0 -50.5 34t-19.5 85zM770 1800q0 48 20 81.5t50 33.5q28 0 47.5 -34t19.5 -81q0 -51 -19.5 -85t-47.5 -34q-31 0 -50.5 34t-19.5 85z" />
<glyph unicode="&#xfd;" horiz-adv-x="1228" d="M102 0v131q167 6 312 87t237 216q-10 -2 -35 -2q-105 0 -180 71.5t-102 184.5l-230 950h132l196 -823q25 -107 51 -162t53.5 -72.5t71.5 -17.5h8q23 1 36.5 4.5t33 18.5t35 44t38 81.5t45 129.5t53.5 190t67 262t82 345h120l-229 -950q-36 -141 -107.5 -263t-171 -215.5 t-232.5 -149t-284 -60.5zM430 1698l172 172h197l-250 -172h-119z" />
<glyph unicode="&#xff;" horiz-adv-x="1228" d="M102 0v131q167 6 312 87t237 216q-10 -2 -35 -2q-105 0 -180 71.5t-102 184.5l-230 950h132l196 -823q25 -107 51 -162t53.5 -72.5t71.5 -17.5h8q23 1 36.5 4.5t33 18.5t35 44t38 81.5t45 129.5t53.5 190t67 262t82 345h120l-229 -950q-36 -141 -107.5 -263t-171 -215.5 t-232.5 -149t-284 -60.5zM416 1802q0 48 19.5 81.5t49.5 33.5q28 0 48 -34t20 -81q0 -50 -20 -84.5t-48 -34.5q-30 0 -49.5 34t-19.5 85zM674 1800q0 48 19.5 81.5t49.5 33.5q28 0 48 -34t20 -81q0 -50 -20 -84.5t-48 -34.5q-30 0 -49.5 34t-19.5 85z" />
<glyph unicode="&#x152;" horiz-adv-x="1669" d="M102 813q0 168 65.5 321t176 263.5t263.5 175.5t321 65h637v-131h-504v-280h289v-131h-289v-965h506v-131h-639q-169 0 -321.5 63.5t-263.5 171.5t-176 259t-65 319zM236 813q0 -187 93.5 -344t253 -247.5t347.5 -90.5v1376q-140 -1 -268.5 -56.5t-221.5 -148.5 t-148.5 -221t-55.5 -268z" />
<glyph unicode="&#x153;" horiz-adv-x="1669" d="M102 813q0 168 65.5 321t176 263.5t263.5 175.5t321 65h637v-131h-504v-280h289v-131h-289v-965h506v-131h-639q-169 0 -321.5 63.5t-263.5 171.5t-176 259t-65 319zM236 813q0 -187 93.5 -344t253 -247.5t347.5 -90.5v1376q-140 -1 -268.5 -56.5t-221.5 -148.5 t-148.5 -221t-55.5 -268z" />
<glyph unicode="&#x178;" horiz-adv-x="1230" d="M102 1638h131l197 -823q31 -130 64.5 -185t78.5 -65h70q38 7 64.5 39t67 141.5t94 320t135.5 572.5h124l-231 -950q-26 -91 -84.5 -159t-140.5 -95v-434h-131v440q-82 33 -135 97.5t-72 150.5q-30 126 -110 447.5t-122 502.5zM418 1802q0 48 19.5 81.5t49.5 33.5 q28 0 48 -34t20 -81q0 -50 -20 -84.5t-48 -34.5q-30 0 -49.5 34t-19.5 85zM676 1800q0 48 19.5 81.5t49.5 33.5q28 0 48 -34t20 -81q0 -50 -20 -84.5t-48 -34.5q-30 0 -49.5 34t-19.5 85z" />
<glyph unicode="&#x2000;" horiz-adv-x="1110" />
<glyph unicode="&#x2001;" horiz-adv-x="2220" />
<glyph unicode="&#x2002;" horiz-adv-x="1110" />
<glyph unicode="&#x2003;" horiz-adv-x="2220" />
<glyph unicode="&#x2004;" horiz-adv-x="740" />
<glyph unicode="&#x2005;" horiz-adv-x="555" />
<glyph unicode="&#x2006;" horiz-adv-x="370" />
<glyph unicode="&#x2007;" horiz-adv-x="370" />
<glyph unicode="&#x2008;" horiz-adv-x="277" />
<glyph unicode="&#x2009;" horiz-adv-x="444" />
<glyph unicode="&#x200a;" horiz-adv-x="123" />
<glyph unicode="&#x2010;" horiz-adv-x="819" d="M102 758v131h615v-131h-615z" />
<glyph unicode="&#x2011;" horiz-adv-x="819" d="M102 758v131h615v-131h-615z" />
<glyph unicode="&#x2012;" horiz-adv-x="819" d="M102 758v131h615v-131h-615z" />
<glyph unicode="&#x2013;" horiz-adv-x="1228" d="M102 758v131h1024v-131h-1024z" />
<glyph unicode="&#x2014;" horiz-adv-x="2252" d="M102 758v131h2048v-131h-2048z" />
<glyph unicode="&#x2018;" horiz-adv-x="337" d="M102 1362l52 272h36l46 -272q0 -28 -19.5 -47t-48.5 -19q-28 0 -47 19t-19 47z" />
<glyph unicode="&#x2019;" horiz-adv-x="337" d="M102 1569q0 28 19.5 46.5t48.5 18.5q28 0 47 -18.5t19 -46.5l-52 -273h-37z" />
<glyph unicode="&#x201a;" horiz-adv-x="337" d="M102 135q0 28 19.5 47t48.5 19q28 0 47 -19t19 -47l-52 -272h-37z" />
<glyph unicode="&#x201c;" horiz-adv-x="571" d="M102 1362l52 272h36l46 -272q0 -28 -19.5 -47t-48.5 -19q-28 0 -47 19t-19 47zM336 1362l51 272h37l45 -272q0 -28 -19.5 -47t-48.5 -19q-28 0 -46.5 19t-18.5 47z" />
<glyph unicode="&#x201d;" horiz-adv-x="571" d="M102 1569q0 28 19.5 46.5t48.5 18.5q28 0 47 -18.5t19 -46.5l-52 -273h-37zM336 1569q0 28 19 46.5t48 18.5q28 0 47 -18.5t19 -46.5l-51 -273h-37z" />
<glyph unicode="&#x201e;" horiz-adv-x="571" d="M102 135q0 28 19.5 47t48.5 19q28 0 47 -19t19 -47l-52 -272h-37zM336 135q0 28 19 47t48 19q28 0 47 -19t19 -47l-51 -272h-37z" />
<glyph unicode="&#x202f;" horiz-adv-x="444" />
<glyph unicode="&#x2039;" horiz-adv-x="659" d="M102 819l338 410h117l-332 -406l330 -415h-119z" />
<glyph unicode="&#x203a;" horiz-adv-x="659" d="M102 1229h117l338 -410l-334 -411h-119l330 415z" />
<glyph unicode="&#x205f;" horiz-adv-x="555" />
<glyph unicode="&#x20ac;" horiz-adv-x="1622" d="M102 758v131h107q2 23 10 74h-117v122h150q86 245 298.5 398t479.5 153q270 0 490 -166l-90 -90q-178 125 -396 125q-211 0 -384.5 -116.5t-254.5 -303.5h527v-122h-568q-1 -9 -4 -23.5t-5 -27t-3 -23.5h375v-131h-377q13 -175 109.5 -319t251 -226t333.5 -82 q222 0 404 133l82 -102q-218 -162 -490 -162q-162 0 -309.5 58.5t-256.5 159t-178 241t-79 299.5h-105z" />
<glyph unicode="&#x25fc;" horiz-adv-x="1638" d="M0 0v1638h1638v-1638h-1638z" />
</font>
</defs>
</svg>
